# xmcd CD database file
#
# Track frame offsets:
#	150
#	20836
#	38587
#	55880
#	67216
#	84726
#	93801
#	109665
#	130559
#	158791
#	177447
#	184769
#
# Disc length: 2609 seconds
#
# Revision: 0
# Processed by: cddbd v1.5.2PL0 Copyright (c) Steve Scherf et al.
# Submitted via: CDex 1.51
#
DISCID=9b0a2f0c
DTITLE=Lilo Kraus and Chris Schmitt - Harp and Harp
DYEAR=2012
DGENRE=Blues
TTITLE0=Mercy, Mercy, Mercy
TTITLE1=Tango Triste
TTITLE2=Tschaikovsky-Blues
TTITLE3=Che Guevara Landler
TTITLE4=La Guabina
TTITLE5=Antermoia
TTITLE6=Bluestrain
TTITLE7=Suite espanola op.47 Granada
TTITLE8=Improvisationen über das Pröludium Nr. 1 von J.S. Bach
TTITLE9=Nanei-Ländler
TTITLE10=Shorttrain
TTITLE11=Andachtsjodler
EXTD=YEAR: 2012
EXTT0=
EXTT1=
EXTT2=
EXTT3=
EXTT4=
EXTT5=
EXTT6=
EXTT7=
EXTT8=
EXTT9=
EXTT10=
EXTT11=
PLAYORDER=
